<?xml version="1.0" encoding="UTF-8" standalone="no"?>
<!-- Created with Inkscape (http://www.inkscape.org/) -->

<svg
   xmlns:dc="http://purl.org/dc/elements/1.1/"
   xmlns:cc="http://creativecommons.org/ns#"
   xmlns:rdf="http://www.w3.org/1999/02/22-rdf-syntax-ns#"
   xmlns:svg="http://www.w3.org/2000/svg"
   xmlns="http://www.w3.org/2000/svg"
   xmlns:sodipodi="http://sodipodi.sourceforge.net/DTD/sodipodi-0.dtd"
   xmlns:inkscape="http://www.inkscape.org/namespaces/inkscape"
   width="744.09448819"
   height="1052.3622047"
   id="svg2"
   version="1.1"
   inkscape:version="0.48.2 r9819"
   sodipodi:docname="New document 1">
  <defs
     id="defs4">
    <inkscape:path-effect
       effect="skeletal"
       id="path-effect3862"
       is_visible="true"
       pattern="m 29.561767,3.1555123 60.40625,43.2812497 55.906253,-43.2812497 -116.312503,0 z m 142.468753,22.0937497 -43.28125,60.40625 43.28125,55.906248 0,-116.312498 z m -132.625003,0.125 c -2.66763,0.0417 -5.08701,0.97157 -7.125,3.03125 -16.303885,16.47746 40.5625,56.8125 40.5625,56.8125 0,0 -57.310745,40.376268 -40.5625,56.781248 16.74825,16.40499 56.78125,-42.374998 56.78125,-42.374998 0,0 39.987763,58.331598 56.812503,42.374998 16.82475,-15.95659 -37.875,-56.781248 -37.875,-56.781248 0,0 54.25938,-40.77916 37.875,-56.8125 -16.38439,-16.03334 -56.812503,39.6875 -56.812503,39.6875 0,0 -30.98286,-43.01052 -49.65625,-42.71875 z m -36.2500047,3.15625 0,116.281248 L 46.436767,84.436762 3.1555123,28.530512 z m 82.7500047,97.249998 -55.875,43.28125 116.281253,0 -60.406253,-43.28125 z"
       copytype="repeated"
       prop_scale="0.31"
       scale_y_rel="false"
       spacing="2"
       normal_offset="2"
       tang_offset="0"
       prop_units="false"
       vertical_pattern="false"
       fuse_tolerance="0" />
  </defs>
  <sodipodi:namedview
     id="base"
     pagecolor="#ffffff"
     bordercolor="#666666"
     borderopacity="1.0"
     inkscape:pageopacity="0.0"
     inkscape:pageshadow="2"
     inkscape:zoom="0.49497475"
     inkscape:cx="313.54417"
     inkscape:cy="604.81553"
     inkscape:document-units="px"
     inkscape:current-layer="layer1"
     showgrid="false"
     inkscape:window-width="1366"
     inkscape:window-height="706"
     inkscape:window-x="-8"
     inkscape:window-y="-8"
     inkscape:window-maximized="1" />
  <metadata
     id="metadata7">
    <rdf:RDF>
      <cc:Work
         rdf:about="">
        <dc:format>image/svg+xml</dc:format>
        <dc:type
           rdf:resource="http://purl.org/dc/dcmitype/StillImage" />
        <dc:title></dc:title>
      </cc:Work>
    </rdf:RDF>
  </metadata>
  <g
     inkscape:label="Layer 1"
     inkscape:groupmode="layer"
     id="layer1">
    <path
       style="fill:#6c5353;fill-opacity:1;stroke:none;stroke-width:10;stroke-linejoin:round;stroke-miterlimit:4;stroke-opacity:1;stroke-dasharray:none"
       d="m 425.71875,63.78125 c -118.9002,0 -216.34651,91.93103 -225.09375,208.59375 l -0.625,0 0,17.125 0,347.15625 451.4375,0 0,-347.15625 0,-17.125 -0.65625,0 C 642.03312,155.71316 544.61832,63.78125 425.71875,63.78125 z"
       id="rect2985"
       inkscape:connector-curvature="0"
       sodipodi:nodetypes="sccccccccs"
       inkscape:export-filename="C:\Users\Patrick\Projects\Labyrinth\media\textures\door_color.png"
       inkscape:export-xdpi="40.218197"
       inkscape:export-ydpi="40.218197" />
    <path
       style="fill:#782b2b;fill-opacity:1;stroke:#c4c0c0;stroke-width:6.31102467;stroke-miterlimit:4;stroke-opacity:1"
       d="m -93.492475,383.10138 60.40625,43.28125 55.90625,-43.28125 -116.3125,0 z m 142.46875,22.09375 -43.2812504,60.40625 43.2812504,55.90625 0,-116.3125 z m -132.625,0.125 c -2.66763,0.0417 -5.08701,0.97157 -7.125,3.03125 -16.303885,16.47746 40.5625,56.8125 40.5625,56.8125 0,0 -57.310745,40.37627 -40.5625,56.78125 16.74825,16.40499 56.78125,-42.375 56.78125,-42.375 0,0 39.9877596,58.3316 56.8125,42.375 16.82475,-15.95659 -37.875,-56.78125 -37.875,-56.78125 0,0 54.25938,-40.77916 37.875,-56.8125 -16.3843904,-16.03334 -56.8125,39.6875 -56.8125,39.6875 0,0 -30.98286,-43.01052 -49.65625,-42.71875 z m -36.250005,3.15625 0,116.28125 43.281255,-60.375 -43.281255,-55.90625 z m 82.750005,97.25 -55.875,43.28125 116.28125,0 -60.40625,-43.28125 z"
       id="rect3758"
       inkscape:connector-curvature="0" />
    <path
       style="fill:#782b2b;fill-opacity:1;stroke:#bcabab;stroke-width:2;stroke-linecap:butt;stroke-linejoin:miter;stroke-opacity:1;stroke-miterlimit:4;stroke-dasharray:none"
       d="m 233.80133,595.58303 c 1.17026,-18.02691 2.34687,-36.00953 3.52982,-53.94787 0.25696,-2.65999 0.52234,-5.31678 0.79627,-7.97023 -6.54947,-18.16903 -12.70754,-36.65066 -18.40883,-55.46538 1.41137,21.75146 3.44268,43.43299 6.01621,65.01881 l 8.06653,52.36467 z m -8.65404,-144.47705 c 1.471,3.1075 2.95583,6.20095 4.45363,9.28102 5.45687,11.25001 11.08197,22.29517 16.85837,33.1469 3.61311,-11.66977 7.40919,-23.18557 11.39535,-34.52926 1.09386,-3.12534 2.20151,-6.23981 3.32337,-9.34246 l -36.03072,1.4438 z m 13.9611,133.70214 c 0.42049,2.64449 1.07539,5.00289 2.01829,6.931 3.77157,7.71241 6.57561,-2.99503 8.44342,-15.58408 1.86782,-12.58905 2.79875,-27.06428 2.79875,-27.06428 0,0 5.28024,13.72695 10.8655,25.25821 5.58526,11.53125 11.47488,20.86232 12.7192,12.24892 0.92616,-6.41105 -1.82855,-15.51813 -5.65634,-24.45204 -3.82779,-8.93391 -8.72908,-17.69763 -12.08735,-23.36116 -2.16193,-3.88629 -3.63299,-6.32549 -3.63299,-6.32549 0,0 3.33987,-10.46787 6.09098,-22.75708 1.37556,-6.14461 2.60381,-12.74873 3.12979,-18.81058 0.52598,-6.06184 0.34795,-11.58574 -1.14943,-15.61491 -1.49738,-4.02917 -3.19273,-3.67315 -4.89851,-0.83177 -1.70578,2.84137 -3.40376,8.17271 -4.85427,14.0507 -1.45052,5.87799 -2.65035,12.30115 -3.46903,17.26069 -0.81869,4.95954 -1.26663,8.45028 -1.26663,8.45028 0,0 -1.11959,-3.28382 -2.81287,-7.97714 -1.69328,-4.69333 -3.95111,-10.8029 -6.27474,-16.43109 -2.32363,-5.6282 -4.71598,-10.77563 -6.77494,-13.46551 -2.05895,-2.68989 -3.80196,-2.91566 -4.77149,1.3352 -0.96952,4.25087 -0.42573,9.95128 0.97915,16.06376 1.40487,6.11247 3.6718,12.63216 6.09221,18.57088 4.84082,11.87744 10.28919,21.41158 10.28919,21.41158 0,0 -0.82504,2.7572 -1.90909,7.15012 -2.30502,10.60497 -5.95641,30.8145 -3.8688,43.94379 z m 6.50699,35.81198 35.61843,-5.48894 c -8.35299,-13.24704 -16.71431,-26.55223 -25.08397,-39.91557 -3.51921,15.081 -7.03069,30.21583 -10.53446,45.40451 z m 17.35511,-86.10748 c 0.42635,1.15017 0.8543,2.29911 1.28384,3.44684 6.78579,16.58839 13.56483,33.12975 20.33713,49.62407 L 276.6796,536.2631 c -2.45198,-20.63541 -4.37538,-41.30415 -5.69088,-61.97991 -3.22014,19.80312 -5.8756,39.90174 -8.01823,60.22943 0,0 0,0 0,0 z M 217.55638,422.24354 c 3.81737,-18.60675 8.19218,-37.0351 13.22655,-55.16647 0.57632,-2.07806 1.16152,-4.153 1.75589,-6.22435 -3.24777,-19.19283 -5.72364,-38.76654 -7.01556,-58.80057 -3.46927,21.47005 -5.58077,42.98542 -6.75845,64.34987 -1.04241,18.6519 -1.40341,37.2774 -1.20843,55.84152 z M 237.34749,276.4409 c 2.87502,16.02458 6.61102,31.52194 10.97844,46.61183 7.55575,-13.56821 15.61149,-26.60435 24.23087,-38.86977 l -35.20931,-7.74206 z m -12.95376,135.68379 c 0.0114,2.72346 0.31098,5.19243 0.96511,7.26485 1.30825,4.14482 3.04568,3.60627 4.91115,0.51042 1.86548,-3.09585 3.88188,-8.74606 5.81739,-14.86573 1.93551,-6.11966 3.79626,-12.70778 5.20239,-17.75418 1.40614,-5.0464 2.34255,-8.5585 2.34255,-8.5585 0,0 0.62445,3.6136 1.72201,8.74456 1.09756,5.13096 2.6839,11.77259 4.51503,17.85284 1.83114,6.08026 3.90003,11.59911 5.81388,14.5571 1.91385,2.95798 3.65029,3.3585 4.89006,-0.75446 1.92454,-6.38463 0.40595,-16.1324 -1.98807,-25.81089 -2.39401,-9.67848 -5.65641,-19.31198 -7.69257,-25.10408 -1.17365,-3.3415 -1.95413,-5.39121 -1.95413,-5.39121 0,0 5.10423,-9.64936 10.13064,-21.06174 2.51321,-5.70619 5.00974,-11.85279 6.75966,-17.58852 1.74991,-5.73573 2.75253,-11.06728 2.17574,-15.2654 -0.57679,-4.19812 -2.3,-4.25187 -4.59034,-1.90309 -2.29035,2.34878 -5.11061,7.12024 -7.75297,12.52 -2.64236,5.39977 -5.10086,11.42397 -6.86625,16.11176 -1.76538,4.68779 -2.85624,8.02675 -2.85624,8.02675 0,0 -0.48819,-3.44401 -1.23654,-8.39592 -0.74835,-4.95191 -1.73603,-11.41888 -2.82456,-17.44956 -1.08853,-6.03069 -2.28095,-11.62839 -3.67985,-14.74654 -1.3989,-3.11815 -3.04705,-3.7514 -4.94894,0.2343 -1.90189,3.9857 -2.62431,9.76318 -2.52541,16.11898 0.0989,6.3558 1.02172,13.28231 2.26113,19.64037 1.23942,6.35806 2.78881,12.15039 4.03042,16.34385 1.24162,4.19346 2.16652,6.7962 2.16652,6.7962 0,0 -0.99431,1.9594 -2.46438,5.21354 -2.15407,4.76678 -5.3108,12.335 -7.86157,20.5471 -2.55077,8.2121 -4.49158,17.06117 -4.46186,24.1672 z m 1.69039,36.90839 36.02413,-1.37325 c -6.77309,-13.9147 -13.25984,-28.07864 -19.37323,-42.55691 -5.90142,14.37424 -11.43756,29.04915 -16.6509,43.93016 z m 30.75731,-82.60954 c 0.13,0.71346 0.26102,1.42655 0.39301,2.13929 3.30474,17.794 7.26965,35.33573 11.748,52.67915 -0.17812,-17.38688 0.1586,-34.7168 1.13236,-51.95567 1.15206,-20.08995 3.08635,-39.97701 6.23584,-59.46072 -7.45471,18.09835 -13.86793,37.11107 -19.50921,56.59795 0,0 0,0 0,0 z M 238.21082,245.65756 c 3.53353,-6.54155 7.25935,-12.97022 11.19021,-19.24844 7.73643,-12.36987 16.35564,-24.18183 25.89396,-34.96334 0.19125,-0.6337 0.38562,-1.26737 0.58315,-1.90101 4.29118,-13.77022 10.15276,-27.49635 18.09349,-40.76799 0,0 0,0 0,0 2.84196,-4.73765 5.95171,-9.38923 9.33542,-13.92408 -4.14021,3.68599 -8.08844,7.56127 -11.83422,11.60271 -10.47095,11.31641 -19.3633,23.67843 -26.81751,36.57451 -7.83277,13.53553 -14.23684,27.58977 -19.49041,41.8076 0,0 0,0 -1e-5,0 -2.55401,6.89978 -4.86332,13.84649 -6.95408,20.82004 z m 93.37879,-123.21953 c -0.32919,0.41973 -0.65565,0.84064 -0.97939,1.2627 -9.57297,12.53005 -16.54571,25.88505 -21.32366,39.30351 0,0 0,1e-5 0,1e-5 -0.3564,1.00109 -0.70079,2.00242 -1.03348,3.00386 0.93537,-0.46192 1.87268,-0.91263 2.81173,-1.35188 0,0 0,0 0,0 12.58409,-5.88615 25.47525,-9.68909 37.88017,-11.19001 0.41782,-0.0513 0.83526,-0.1002 1.25229,-0.14661 L 331.58961,122.43803 z M 247.93792,237.7272 c -0.87756,2.68055 -1.37557,5.20509 -1.39724,7.44125 -0.0237,2.4452 0.52744,3.54608 1.46435,3.63707 0.93692,0.091 2.26376,-0.82646 3.84991,-2.40737 3.17231,-3.16183 7.41111,-8.9525 11.67294,-14.74801 3.53246,-4.80504 7.0855,-9.61466 9.79446,-13.17886 2.70896,-3.56419 4.54986,-5.90955 4.54986,-5.90955 0,0 -0.69045,2.90755 -1.45332,7.25942 -0.76288,4.35186 -1.5624,10.14781 -1.95274,15.88706 -0.47381,6.97983 -0.33902,13.86484 0.57847,18.01813 0.45875,2.07664 1.10397,3.47203 1.95006,3.87468 0.84609,0.40265 1.88929,-0.18849 3.19576,-2.06064 2.59838,-3.72347 4.09312,-9.42297 5.14176,-15.80089 0.7003,-4.24811 1.19477,-8.79959 1.61689,-13.26117 0.42212,-4.46157 0.77371,-8.83401 1.09476,-12.69596 0.32104,-3.86196 0.60821,-7.21284 0.81649,-9.6013 0.20828,-2.38846 0.32789,-3.81202 0.32789,-3.81202 0,0 0.86882,-0.63355 2.36001,-1.72778 2.91056,-2.13468 8.20262,-5.98703 14.09069,-10.12033 2.94403,-2.06665 6.03523,-4.20783 9.0433,-6.32177 3.00806,-2.11394 5.93273,-4.19996 8.54567,-6.24351 3.81832,-2.98882 6.97213,-5.91081 8.71933,-8.96623 1.01111,-1.76818 1.17542,-2.91668 0.64038,-3.59611 -0.53505,-0.67943 -1.76751,-0.8839 -3.49056,-0.68547 -1.72304,0.19842 -3.93497,0.80434 -6.39551,1.74385 -2.46053,0.93951 -5.16774,2.21482 -7.87522,3.69894 -4.94984,2.71324 -9.87632,6.16071 -13.50515,8.9993 -3.62883,2.83859 -5.98682,5.01145 -5.98682,5.01145 0,0 1.14917,-2.97652 2.97981,-7.31214 0.91532,-2.16781 2.00698,-4.67439 3.20924,-7.32096 1.20226,-2.64657 2.51639,-5.43273 3.83787,-8.17061 1.43579,-2.97173 2.88277,-5.88209 4.13656,-8.5081 1.25379,-2.62601 2.31231,-4.96905 2.91774,-6.82048 0.60543,-1.85143 0.75336,-3.21476 0.18094,-3.85897 -0.57241,-0.64421 -1.87241,-0.57391 -4.08097,0.52694 -3.87508,1.93151 -7.96771,5.85169 -11.59856,10.81592 -2.43752,3.33835 -4.66747,7.12705 -6.58473,11.03867 -1.91726,3.91162 -3.52272,7.94473 -4.8086,11.77866 -2.57176,7.66786 -3.85166,14.51422 -4.43146,18.24122 -0.29618,1.90381 -0.41924,3.00074 -0.41924,3.00074 0,0 -4.70327,3.56449 -10.56651,9.45325 -2.93163,2.94439 -6.14502,6.47188 -9.20527,10.33194 -3.06026,3.86006 -5.9656,8.05038 -8.3345,12.2261 -1.96763,3.46504 -3.57305,6.91902 -4.62874,10.14364 z m -9.14697,36.90163 35.16595,7.90407 c -0.18238,-0.88577 -0.36186,-1.77299 -0.53838,-2.66168 -2.78388,-13.96981 -4.86215,-28.27064 -5.81628,-43.01322 -9.68209,10.93652 -18.74537,22.86741 -27.20587,35.37985 -0.53737,0.79459 -1.07251,1.5916 -1.60542,2.39098 z m 56.02278,-67.68546 c -2.8682,11.2921 -4.72312,22.69933 -5.90351,34.12356 -0.64868,6.30859 -1.07153,12.6185 -1.30647,18.92854 1.75813,-5.85168 3.67686,-11.61415 5.7806,-17.26865 0,-1e-5 0,-1e-5 0,-1e-5 4.4429,-11.91559 9.60039,-23.3261 15.75067,-33.87641 5.84778,-10.01587 12.47367,-19.31645 20.01814,-27.39022 2.75925,-2.96002 5.64471,-5.78374 8.64491,-8.44583 -3.71948,1.85016 -7.40518,3.93313 -11.02875,6.23126 0,0 0,0 0,0 -9.89173,6.27032 -19.3269,14.31419 -28.1051,23.52649 -1.29913,1.36477 -2.58259,2.7557 -3.85049,4.17127 z m 63.48826,-104.61344 c 4.30612,-0.66267 8.60282,-1.14897 12.87807,-1.46551 0,0 0,0 10e-6,0 17.78783,-1.279882 34.87078,0.2244 51.02013,3.56748 0,0 0,0 0,0 1.3568,0.27698 2.70972,0.56738 4.05816,0.87132 14.77465,-3.11499 30.37827,-4.62432 46.66327,-3.73484 5.56737,0.31639 11.18098,0.92976 16.81261,1.85723 -5.22706,-1.99096 -10.54432,-3.709338 -15.9251,-5.153018 -17.17868,-4.572412 -34.60161,-6.511758 -51.65263,-6.406979 0,0 0,0 0,0 -17.06835,0.0175 -34.47089,2.051851 -51.61295,6.652184 -4.12117,1.11415 -8.20549,2.385183 -12.24157,3.812133 z m 155.56724,20.64561 c -16.11663,-3.16657 -31.80243,-3.32517 -46.38362,-1.22048 -1.04824,0.15141 -2.09068,0.3142 -3.12736,0.488 0.84247,0.60834 1.67542,1.22411 2.4985,1.84726 11.44583,8.66469 20.94253,18.75313 27.9372,29.48298 l 19.07528,-30.59776 z M 371.1519,105.49353 c -2.88371,0.81715 -5.40236,1.90583 -7.36428,3.23099 -1.62929,1.10049 -2.3707,2.01689 -2.41996,2.74254 -0.0493,0.72566 0.5938,1.26376 1.75009,1.66732 2.31259,0.80711 6.67298,1.09485 11.7691,1.39612 3.58586,0.21528 7.53171,0.43343 11.4143,0.7207 3.8826,0.28727 7.70238,0.64167 11.06285,1.01464 3.36046,0.37296 6.26271,0.75962 8.32612,1.05015 2.0634,0.29053 3.2903,0.47827 3.2903,0.47827 0,0 -4.80079,1.35501 -10.87958,3.81751 -3.03939,1.23124 -6.38971,2.74477 -9.62223,4.44736 -3.23253,1.70258 -6.34458,3.59426 -8.97578,5.48939 -3.77667,2.71819 -6.55872,5.42776 -7.56847,7.3991 -0.50487,0.98567 -0.57162,1.78619 -0.11033,2.33465 0.46129,0.54846 1.44929,0.8431 3.07381,0.86327 2.17557,0.027 4.57083,-0.44751 7.14343,-1.23837 3.20859,-0.99254 6.7146,-2.46851 10.38914,-4.12172 3.67454,-1.6532 7.51837,-3.48344 11.27615,-5.25094 3.75777,-1.76751 7.42596,-3.47313 10.64699,-4.93962 3.22104,-1.4665 5.99037,-2.69687 7.91137,-3.54837 1.79918,-0.79523 2.85006,-1.26356 2.85006,-1.26356 0,0 1.46357,0.68404 3.88107,1.81886 2.4175,1.13482 5.78021,2.72953 9.54795,4.58012 3.76774,1.85058 7.93231,3.9611 12.04926,6.05893 4.11695,2.09783 8.18219,4.18372 11.94592,5.88275 4.38317,1.97109 8.39549,3.40297 11.88972,3.535 2.0214,0.0764 3.11143,-0.30794 3.46795,-1.09613 0.35652,-0.78819 -0.0248,-1.97553 -0.98885,-3.41112 -0.96404,-1.43559 -2.51413,-3.11565 -4.47753,-4.85826 -1.9634,-1.74261 -4.34126,-3.54483 -6.90896,-5.24438 -4.69184,-3.10756 -10.03964,-5.82992 -14.24937,-7.68385 -4.20973,-1.85393 -7.24133,-2.89332 -7.24133,-2.89332 0,0 3.16165,-0.40574 7.84691,-0.84101 2.34262,-0.21764 5.06822,-0.43654 7.97158,-0.6181 2.90337,-0.18157 5.98477,-0.32442 9.02976,-0.432 3.30792,-0.11445 6.56834,-0.18231 9.48713,-0.28446 2.91879,-0.10216 5.49621,-0.24129 7.42635,-0.55485 1.93014,-0.31356 3.21421,-0.80735 3.52332,-1.61209 0.30912,-0.80473 -0.35573,-1.92945 -2.36504,-3.3867 -3.5267,-2.55775 -8.94028,-4.38595 -15.07424,-5.29318 -5.17134,-0.75591 -10.81246,-0.86738 -16.25579,-0.47574 -5.44333,0.39164 -10.68759,1.28011 -15.2069,2.32396 -4.51931,1.04384 -8.31877,2.2337 -10.984,3.15211 -2.66522,0.9184 -4.20622,1.55656 -4.20622,1.55656 0,0 -1.08489,-0.47714 -3.00137,-1.21645 -2.05167,-0.79461 -5.06489,-1.88903 -8.74904,-2.97564 -3.68415,-1.08661 -8.043,-2.16028 -12.72722,-2.93687 -4.68423,-0.77659 -9.6945,-1.25146 -14.5887,-1.23983 -4.8942,0.0116 -9.66914,0.51062 -13.80812,1.53755 -0.40557,0.10125 -0.80483,0.2075 -1.19732,0.31871 z m -37.09707,16.66763 18.1427,31.14252 c 6.55105,-10.05547 15.22332,-19.59489 25.6133,-27.99316 1.64953,-1.33352 3.34178,-2.63805 5.07389,-3.91309 -2.10101,-0.32813 -4.2231,-0.61313 -6.36644,-0.85224 -13.50714,-1.50329 -27.82768,-1.13325 -42.46345,1.61597 z m 88.0165,7.71918 c -14.16233,3.7199 -27.39498,8.96245 -38.72275,15.84656 -2.60658,1.57933 -5.12576,3.2405 -7.54815,4.97547 2.69928,-0.94319 5.43821,-1.79253 8.2068,-2.54718 12.09483,-3.33233 25.06908,-4.76894 38.32809,-4.85895 0,0 10e-6,0 10e-6,0 13.19913,0.002 26.10468,1.3516 38.1005,4.63817 3.84961,1.04238 7.63986,2.27404 11.34151,3.69268 -3.31252,-2.43196 -6.82004,-4.71815 -10.49484,-6.83679 0,0 0,0 -1e-5,0 -11.4477,-6.62191 -24.78177,-11.51567 -38.99364,-14.85965 0,0 0,0 0,0 -0.0725,-0.0168 -0.145,-0.0336 -0.21752,-0.0503 z m 121.86046,7.88724 c 2.42578,3.3963 4.69976,6.85548 6.82436,10.36467 0,0 0,0 0,1e-5 8.02865,13.29781 13.94456,27.06634 18.26737,40.88036 0,0 0,0 0,0 1.0989,3.5095 2.10106,7.02024 3.01405,10.52997 7.27675,8.8745 13.98053,18.36541 20.12901,28.21925 4.62731,7.40774 8.97153,15.03158 13.0539,22.80731 -2.2285,-8.27431 -4.75352,-16.52287 -7.61948,-24.71347 0,0 0,0 0,0 -5.01158,-14.35131 -11.18665,-28.56889 -18.82649,-42.29047 -10e-6,0 -10e-6,-1e-5 -10e-6,-1e-5 -7.23628,-13.01466 -15.94572,-25.525 -26.29196,-36.99673 -2.73621,-3.02856 -5.58788,-5.96553 -8.55075,-8.80089 z m 60.86095,141.23915 c -1.18649,-1.77407 -2.3835,-3.53658 -3.59117,-5.28697 -7.99997,-11.59785 -16.50918,-22.67994 -25.53765,-32.90032 -0.89929,13.45149 -2.70737,26.55984 -5.10426,39.4064 -0.3613,1.94211 -0.73643,3.8776 -1.12489,5.80672 l 35.35797,-7.02583 z M 546.89255,150.65832 c -2.02622,-2.20242 -4.1315,-3.95863 -6.198,-5.11215 -1.68723,-0.94181 -2.82968,-1.19815 -3.50426,-0.93765 -0.67458,0.26051 -0.88391,1.03926 -0.74918,2.20625 0.26946,2.33399 1.89742,6.22395 3.86649,10.78191 0,0 0,0 0,0 1.42397,3.30169 3.02885,6.94977 4.55143,10.58503 1.52258,3.63526 2.96489,7.2572 4.18208,10.47744 1.21719,3.22024 2.21425,6.0375 2.91009,8.04949 0.69583,2.012 1.09753,3.21781 1.09753,3.21781 0,0 -0.87051,-0.92711 -2.37002,-2.40998 -1.4995,-1.48286 -3.63284,-3.51586 -6.15924,-5.69985 -2.52641,-2.18398 -5.44761,-4.51418 -8.47389,-6.64124 -3.02629,-2.12705 -6.15637,-4.04846 -9.04887,-5.52153 0,0 0,0 0,0 -4.03426,-2.05421 -7.59039,-3.24018 -9.72148,-3.21275 -1.06555,0.0137 -1.77663,0.32644 -2.03865,0.98629 -0.26203,0.65986 -0.0742,1.66502 0.62886,3.10082 0.90962,1.85767 2.31437,3.68916 4.0573,5.53334 1.85766,1.96241 4.09842,3.95132 6.54541,5.98642 2.44698,2.03511 5.10043,4.11708 7.78386,6.20576 2.68342,2.08869 5.39653,4.18328 7.96405,6.18535 2.56752,2.00207 4.98923,3.91002 7.09556,5.58563 4.50527,3.58686 7.57627,6.0797 7.57627,6.0797 0,0 0.19552,4.45768 0.46184,10.84679 0.13317,3.19455 0.2786,6.87207 0.45814,10.73579 0.17954,3.86372 0.39349,7.91385 0.72084,11.87356 0.36167,4.39664 0.85595,8.68104 1.64827,12.49749 0.79231,3.81645 1.88556,7.1671 3.47736,9.68992 1.47601,2.33931 2.66328,2.85522 3.63982,2.0458 0.97654,-0.80941 1.73456,-2.94249 2.27179,-5.86306 0.53722,-2.92057 0.84847,-6.62804 0.94593,-10.56351 0.0975,-3.93547 -0.0217,-8.09833 -0.26871,-11.91556 -0.50526,-7.79815 -1.5559,-14.14034 -1.5559,-14.14034 0,0 3.73457,5.21011 8.28411,11.78037 2.21245,3.19454 4.62052,6.70844 6.96001,10.03453 2.33949,3.32609 4.61237,6.46284 6.61212,8.84984 1.99975,2.387 3.73115,4.02211 4.99481,4.32092 1.26365,0.29882 2.06821,-0.7413 2.12298,-3.69484 0.0596,-3.21533 -0.83365,-7.04921 -2.39929,-11.12289 -1.56564,-4.07368 -3.80509,-8.38328 -6.39448,-12.56021 -2.30531,-3.72211 -4.89458,-7.34009 -7.49927,-10.62851 -2.60468,-3.28841 -5.22358,-6.24673 -7.55995,-8.70813 -4.67272,-4.92282 -8.19244,-7.87336 -8.19244,-7.87336 0,0 -0.0638,-1.01017 -0.2459,-2.7771 -0.18211,-1.76693 -0.48587,-4.29192 -0.99578,-7.32193 -0.47889,-2.84639 -1.14424,-6.13874 -2.05815,-9.65018 -0.91391,-3.51143 -2.07833,-7.24177 -3.51303,-10.94488 -1.43471,-3.70311 -3.14074,-7.37818 -5.07229,-10.76752 -1.93156,-3.38934 -4.08788,-6.49174 -6.35463,-9.05345 -0.16067,-0.18132 -0.32187,-0.3599 -0.48354,-0.53563 z m -31.65133,-25.60582 -19.53293,30.29071 c 11.74281,1.2301 24.01102,4.62711 36.05208,9.99566 2.08556,0.92995 4.16406,1.91858 6.23332,2.9628 -0.70774,-2.17958 -1.47003,-4.35821 -2.29022,-6.53451 -4.74042,-12.57111 -11.44831,-25.02938 -20.46225,-36.71466 z m 33.0516,82.05533 c -1.30826,-1.45869 -2.63302,-2.89049 -3.9744,-4.29365 0,0 0,0 0,0 -8.81248,-9.20737 -18.27652,-17.20244 -28.17086,-23.33302 0,0 0,0 0,0 -2.4815,-1.53793 -4.98993,-2.97041 -7.51525,-4.29138 1.96876,1.89851 3.88076,3.87023 5.73228,5.90641 7.39527,8.1121 13.84417,17.47429 19.51034,27.55226 0,1e-5 0,1e-5 0,1e-5 5.9857,10.66616 10.94994,22.19697 15.19401,34.23017 0,0 0,0 0,0 2.46234,6.99892 4.64281,14.1567 6.58833,21.4393 -0.19788,-7.75029 -0.6637,-15.49642 -1.46705,-23.23562 -1.18852,-11.38987 -3.0409,-22.74845 -5.8974,-33.97448 z m 68.14025,100.05182 c -1.5377,21.31446 -4.36907,42.12773 -8.00568,62.52863 -0.036,0.20271 -0.0722,0.40539 -0.10838,0.60803 5.19821,18.73631 9.71038,37.79615 13.64687,57.04821 0.5401,-19.32989 0.49866,-38.73505 -0.2636,-58.18027 -0.79053,-20.5686 -2.42052,-41.29143 -5.26921,-62.0046 z m -2.41688,146.60692 c -5.43549,-14.99388 -11.18697,-29.77701 -17.29651,-44.25226 -5.90855,14.36527 -12.17248,28.44385 -18.71015,42.29512 l 36.00666,1.95714 z m -3.11408,-135.57209 c -0.33733,-2.73623 -0.93867,-5.18451 -1.84722,-7.18818 -1.81711,-4.00733 -3.47295,-3.23942 -4.93658,0.0924 -1.46362,3.33186 -2.77862,9.22172 -4.00484,15.54521 -1.22623,6.32348 -2.36601,13.08393 -3.23151,18.25573 -0.8655,5.17179 -1.43567,8.76239 -1.43567,8.76239 0,0 -0.99395,-3.53279 -2.62782,-8.51798 -1.63387,-4.9852 -3.92719,-11.41131 -6.43274,-17.22016 -2.50554,-5.80884 -5.21804,-10.99575 -7.47718,-13.66211 -2.25914,-2.66637 -4.0262,-2.83121 -4.76009,1.34253 -0.73388,4.17375 0.10027,9.53396 1.68759,15.32009 1.58732,5.78613 3.92702,12.00455 6.30403,17.78021 4.75401,11.55131 9.6678,21.32922 9.6678,21.32922 0,0 -0.0441,0.10816 -0.12696,0.31547 -0.38013,0.95012 -1.57414,3.98428 -3.11602,8.21149 -1.54187,4.22721 -3.43707,9.64292 -5.19675,15.3913 -1.75968,5.74838 -3.38448,11.83012 -4.3181,17.45232 -0.93362,5.6222 -1.17367,10.7889 -0.11144,14.73297 1.12017,4.15919 2.84078,3.96648 4.80213,1.29881 1.96135,-2.66766 4.14364,-7.81396 6.11653,-13.525 1.97289,-5.71103 3.73008,-11.98701 4.96728,-16.84463 1.23719,-4.85762 1.96772,-8.29043 1.96772,-8.29043 0,0 0.84968,3.37271 2.13916,8.20597 1.28948,4.83326 3.00561,11.13353 4.8149,16.96057 1.8093,5.82704 3.71729,11.18006 5.51882,14.05325 1.80153,2.87319 3.517,3.26414 4.87583,-0.87097 1.28893,-3.92241 1.33924,-9.27516 0.61122,-15.1279 -0.72802,-5.85273 -2.23688,-12.20116 -4.00826,-18.13572 -1.77138,-5.93456 -3.80419,-11.45421 -5.5105,-15.71249 -1.7063,-4.25829 -3.08065,-7.2599 -3.51448,-8.19579 -0.0941,-0.20298 -0.14403,-0.30873 -0.14403,-0.30873 0,0 3.05925,-7.90743 5.71339,-18.35908 1.32708,-5.22582 2.54648,-11.08821 3.266,-16.85773 0.71952,-5.76951 0.9381,-11.44467 0.34779,-16.23308 z m -6.70748,-36.951 -35.37796,6.8639 c 8.76025,12.37146 16.96689,25.52824 24.68306,39.22185 4.23508,-14.95222 7.87281,-30.27729 10.6949,-46.08575 z m -20.62045,86.01332 c -5.2822,-18.09284 -11.21925,-35.76941 -18.02408,-52.67338 2.52166,18.59394 3.98528,37.51713 4.76127,56.6095 0.72813,18.30205 0.7568,36.69218 0.22857,55.13435 4.74239,-18.32198 8.93404,-36.84674 12.40838,-55.63319 0.21113,-1.14492 0.41978,-2.29067 0.62586,-3.43728 z m 35.32714,115.86425 c -6.10067,20.15477 -12.72132,40.0043 -19.78389,59.57252 0.12641,1.2132 0.25111,2.42692 0.37412,3.64112 1.82758,18.0223 3.28766,36.17754 4.30258,54.48221 3.11104,-17.57421 5.81067,-35.19049 8.15786,-52.82287 2.86859,-21.53114 5.21076,-43.16315 6.94933,-64.87298 z m -26.86717,142.75931 c -0.26937,-1.4306 -0.54817,-2.84603 -0.83331,-4.24888 -1.21119,-5.95993 -2.50115,-11.85528 -3.84006,-17.71028 0,0 0,0 0,0 -1.87516,-8.20084 -3.84164,-16.3461 -5.89157,-24.44005 -4.25416,7.07379 -8.57192,14.07694 -12.95563,21.00125 0,0 0,0 0,0 -3.12995,4.944 -6.29068,9.83565 -9.49852,14.64215 0,0 0,0 0,0 -0.75515,1.13156 -1.51094,2.24957 -2.26914,3.35061 l 35.28823,7.4052 z m 19.16068,-133.3456 c 0.22641,-2.69985 0.14686,-5.17386 -0.31945,-7.28794 -0.93263,-4.22816 -2.71018,-3.854 -4.84536,-0.9476 -2.13518,2.9064 -4.64604,8.33919 -7.09731,14.25741 -2.45127,5.91821 -4.84575,12.32237 -6.64448,17.23916 -1.79872,4.91678 -2.99199,8.35194 -2.99199,8.35194 0,0 -0.35611,-3.64997 -1.04575,-8.85745 -0.68965,-5.20748 -1.72364,-11.96877 -3.02511,-18.19858 -1.30148,-6.2298 -2.86732,-11.92659 -4.50625,-15.05395 -1.63893,-3.12737 -3.33221,-3.68845 -4.93807,0.31466 -1.60587,4.00311 -1.90212,9.53822 -1.48996,15.62105 0.41215,6.08283 1.53108,12.7167 2.81305,18.88331 2.56394,12.33321 5.7799,22.80933 5.7799,22.80933 0,0 -0.95284,1.54104 -2.45858,4.1296 -2.94758,5.06742 -8.02892,14.12303 -12.241,23.52573 -4.21208,9.40269 -7.56278,19.15554 -6.77254,25.99213 0.49604,4.29147 2.22749,4.34909 4.55914,1.99152 2.33165,-2.35756 5.24706,-7.13832 8.05284,-12.50164 2.80577,-5.36333 5.49878,-11.30843 7.47468,-15.92058 1.9759,-4.61214 3.24326,-7.88528 3.24326,-7.88528 0,0 0.30224,3.46644 0.82747,8.43841 0.52523,4.97197 1.26357,11.45255 2.18295,17.47441 0.91938,6.02186 2.02212,11.58632 3.38418,14.68636 1.36206,3.10003 3.0016,3.73403 4.95009,-0.14441 3.10819,-6.18681 3.33131,-16.85108 2.32434,-27.34231 -1.00697,-10.49124 -3.23553,-20.80045 -4.63367,-26.53632 -0.70952,-2.91158 -1.19957,-4.65042 -1.19957,-4.65042 0,0 4.32255,-7.27323 8.78923,-16.99951 4.46667,-9.72628 9.03552,-21.93956 9.82796,-31.38903 z m 1.69319,-36.79399 -35.99288,-2.02422 c 1.07938,2.88013 2.14692,5.77055 3.20295,8.67051 4.26002,11.70033 8.32986,23.55073 12.21708,35.53156 5.69926,-11.07274 11.24218,-22.29656 16.612,-33.68258 1.33102,-2.82117 2.65152,-5.65277 3.96085,-8.49527 z m -37.64711,79.78327 c -2.11043,-18.85479 -4.64434,-37.55635 -7.64215,-56.05218 -1.65844,20.6009 -3.89282,41.18613 -6.62765,61.73313 -2.27896,17.10639 -4.89035,34.13753 -7.89462,51.06679 6.8545,-16.24608 13.34797,-32.77446 19.52315,-49.51824 0.88725,-2.40583 1.76773,-4.81565 2.64127,-7.2295 z"
       id="path3849"
       inkscape:connector-curvature="0"
       sodipodi:nodetypes="czc"
       inkscape:path-effect="#path-effect3862"
       inkscape:original-d="m 262.63967,617.99659 c 0,0 -103.3869,-500.12129 159.60409,-501.03566 262.99099,-0.91437 151.52288,507.09658 151.52288,507.09658"
       inkscape:export-filename="C:\Users\Patrick\Projects\Labyrinth\media\textures\door_color.png"
       inkscape:export-xdpi="40.218197"
       inkscape:export-ydpi="40.218197" />
  </g>
</svg>
